# xmcd
#
# Track frame offsets:
#	150
#	18297
#	28987
#	41987
#	54155
#	68358
#	87675
#	97026
#	107661
#	121590
#	135060
#	150787
#	164129
#	174849
#	184290
#	198090
#	210819
#
# Disc length: 2934 seconds
#
# Revision: 1
# Processed by: cddbd v1.5.2PL0 Copyright (c) Steve Scherf et al.
# Submitted via: audiograbber 1.83.01
#
DISCID=ce0b7411
DTITLE=Various Artist - Pure... Country CD2
DYEAR=2010
DGENRE=Country
TTITLE0=Billy Swan - I Can Help
TTITLE1=The Statler Brothers - Flowers On The Wall
TTITLE2=The Browns - The Three Bells
TTITLE3=Charlie Rich - The Most Beautiful Girl
TTITLE4=George Jones - The Grand Tour
TTITLE5=Kris Kristofferson - Me And Bobby McGee
TTITLE6=Charley Pride - Kiss An Angel Good Mornin'
TTITLE7=Connie Smith - Once A Day
TTITLE8=Barbara Fairchild - Teddy Bear Song
TTITLE9=Carl Butler - Don't Let Me Cross Over
TTITLE10=B.J. Thomas - Whatever Happened To Old Fashioned Love
TTITLE11=David Houston - Almost Persuaded
TTITLE12=Floyd Cramer - San Antonio Rose
TTITLE13=Lester Faltt and Earl Scruggs and The Foggy Mountain Boys - The Ballad Of 
TTITLE13=Jed Clampett
TTITLE14=Jimmy Dean - Big Bad John
TTITLE15=Porter Wagoner - A Satisfied Mind
TTITLE16=Elvis Presley - Don't Be Cruel
EXTD=
EXTT0=
EXTT1=
EXTT2=
EXTT3=
EXTT4=
EXTT5=
EXTT6=
EXTT7=
EXTT8=
EXTT9=
EXTT10=
EXTT11=
EXTT12=
EXTT13=
EXTT14=
EXTT15=
EXTT16=
PLAYORDER=
